<?xml version="1.0" encoding="utf-8"?>
<svg viewBox="53.819 64.064 57.718 46.155" xmlns="http://www.w3.org/2000/svg">
  <g>
    <g>
      <path fill="none" fill-rule="evenodd" stroke-linecap="round" d="M 81.891 73.61 L 88.311 73.61 C 90.966 73.61 93.121 75.634 93.121 78.133 L 93.121 84.163 C 93.121 86.657 90.966 88.684 88.311 88.684 L 81.891 88.684 C 79.234 88.684 77.078 86.657 77.078 84.163 L 77.078 78.133 C 77.078 75.634 79.234 73.61 81.891 73.61 Z M 58.632 73.61 L 65.048 73.61 C 67.706 73.61 69.86 75.634 69.86 78.133 L 69.86 84.163 C 69.86 86.657 67.706 88.684 65.048 88.684 L 58.632 88.684 C 55.973 88.684 53.819 86.657 53.819 84.163 L 53.819 78.133 C 53.819 75.634 55.973 73.61 58.632 73.61 Z M 58.632 95.147 L 65.048 95.147 C 67.706 95.147 69.86 97.171 69.86 99.67 L 69.86 105.698 C 69.86 108.196 67.706 110.219 65.048 110.219 L 58.632 110.219 C 55.973 110.219 53.819 108.196 53.819 105.698 L 53.819 99.67 C 53.819 97.171 55.973 95.147 58.632 95.147 Z M 81.891 95.147 L 88.311 95.147 C 90.966 95.147 93.121 97.171 93.121 99.67 L 93.121 105.698 C 93.121 108.196 90.966 110.219 88.311 110.219 L 81.891 110.219 C 79.234 110.219 77.078 108.196 77.078 105.698 L 77.078 99.67 C 77.078 97.171 79.234 95.147 81.891 95.147 Z" style="stroke: rgb(98, 224, 217); stroke-linejoin: round; stroke-width: 4px;"/>
    </g>
    <path d="M 79.932 98.654 C 79.932 98.654 78.372 98.359 77.779 97.765 L 64.699 84.708 L 69.007 80.408 L 79.932 91.314 L 107.227 64.064 L 111.537 68.364 L 82.087 97.764 C 81.516 98.336 80.74 98.656 79.932 98.654 Z" stroke-linecap="round" fill-rule="evenodd" stroke-linejoin="round" style="stroke: rgb(98, 224, 217); paint-order: fill; fill: rgb(98, 224, 217);"/>
  </g>
</svg>