<?xml version="1.0" encoding="utf-8"?>
<svg viewBox="85.196 64.061 101.29 101.328" xmlns="http://www.w3.org/2000/svg" xmlns:bx="https://boxy-svg.com">
  <path d="M 110.908 65.389 C 100.708 68.489 92.408 75.889 87.808 85.789 C 85.608 90.489 85.108 92.789 85.208 99.889 C 85.208 108.989 87.108 114.889 92.008 121.389 C 94.908 125.189 96.808 127.689 104.208 131.489 C 113.708 136.289 121.508 136.989 131.708 133.989 L 138.908 131.689 L 155.708 148.489 C 171.808 164.589 172.708 165.389 176.508 165.389 C 183.508 165.389 188.608 157.689 185.608 151.789 C 184.908 150.489 177.208 142.189 168.508 133.389 L 152.608 117.389 L 154.708 111.389 C 156.208 107.089 156.708 103.589 156.508 98.389 C 156.208 91.689 155.008 87.289 153.708 84.889 C 150.908 79.989 145.808 73.989 142.008 71.089 C 133.808 64.789 120.508 62.289 110.908 65.389 Z M 151.908 130.089 C 147.608 134.489 147.008 134.589 143.908 131.689 L 141.608 129.589 L 145.808 125.289 L 150.108 120.989 L 152.808 123.589 L 155.608 126.289 L 151.908 130.089 Z M 182.308 154.789 C 182.808 156.689 182.308 157.789 180.208 159.589 C 178.708 160.889 176.808 161.889 175.908 161.889 C 174.208 161.889 150.608 139.189 150.608 137.489 C 150.608 136.889 152.308 134.789 154.308 132.689 L 158.008 128.889 L 169.908 140.589 C 176.408 147.089 181.908 153.489 182.308 154.789 Z" style="stroke: rgb(98, 224, 217); fill: rgb(98, 224, 217);"/>
  <path style="fill: rgb(24, 31, 42); stroke: rgba(255, 255, 255, 0);" transform="matrix(0.219882, 0, 0, 0.211425, -16.174786, 37.400582)" d="M 772.8 294.6 A 150.4 150.4 0 1 1 622.4 144.2 L 622.4 294.6 Z" bx:shape="pie 622.4 294.6 0 150.4 90 360 1@7c1cf99d"/>
</svg>